<svg width="59" height="32" viewBox="0 0 59 32" fill="none" xmlns="http://www.w3.org/2000/svg">
<path fill-rule="evenodd" clip-rule="evenodd" d="M56.3261 31.5856L56.3213 32H2.36035V13.0776L2.77471 13.0772V31.5856H56.3261ZM56.3213 20.0349L55.9069 20.042V0.414351H2.77471V1.29337L2.36035 1.30061V0H56.3213V20.0349Z" fill="#FFC000"/>
<path fill-rule="evenodd" clip-rule="evenodd" d="M54.4443 1.90015C54.4443 1.90015 54.9153 13.361 52.9083 18.0151C50.1764 17.8823 46.8729 17.3625 43.3734 16.6149C44.335 14.2716 43.9197 13.5438 44.1858 11.9664L42.0576 12.0143V16.3092C38.5433 15.4534 35.5452 14.3731 32.2062 13.1571L32.0569 13.1385C40.3315 17.4477 47.414 21.2441 58.1691 20.8592L55.9771 30.3042C50.1361 30.0347 45.7128 29.2957 42.0576 28.2454V29.9317H31.1447V23.336C30.7553 23.1132 29.9125 22.888 29.5205 22.6609V29.9317H17.8724V17.1891C19.6796 17.7465 21.451 18.3776 23.364 19.0719C18.0479 16.3732 11.1892 13.7211 0 11.796L3.0677 2.82871C3.55592 2.90454 4.03765 2.98369 4.51424 3.06647V1.94773H16.1624V6.14354C16.6378 6.3085 17.4083 6.47648 17.8724 6.64778V1.94773H29.5205V12.0576C29.9136 12.2601 30.7566 12.4622 31.1447 12.6637V1.94773L54.4443 1.90015ZM4.51424 14.7621C9.48936 15.1356 12.8108 15.8272 16.1624 16.7731V29.9317H4.51424V14.7621Z" fill="#FFC000"/>
</svg>
